<svg xmlns="http://www.w3.org/2000/svg" xmlns:xlink="http://www.w3.org/1999/xlink" width="500" zoomAndPan="magnify" viewBox="0 0 375 374.999991" height="500" preserveAspectRatio="xMidYMid meet" version="1.0"><defs><clipPath id="id1"><path d="M 77 27.453125 L 170 27.453125 L 170 92 L 77 92 Z M 77 27.453125 " clip-rule="nonzero"/></clipPath><clipPath id="id2"><path d="M 204 27.453125 L 298 27.453125 L 298 91 L 204 91 Z M 204 27.453125 " clip-rule="nonzero"/></clipPath><clipPath id="id3"><path d="M 204 280 L 300 280 L 300 347.65625 L 204 347.65625 Z M 204 280 " clip-rule="nonzero"/></clipPath><clipPath id="id4"><path d="M 74 280 L 170 280 L 170 347.65625 L 74 347.65625 Z M 74 280 " clip-rule="nonzero"/></clipPath><clipPath id="id5"><path d="M 26.871094 191 L 117 191 L 117 294 L 26.871094 294 Z M 26.871094 191 " clip-rule="nonzero"/></clipPath><clipPath id="id6"><path d="M 257 191 L 347.871094 191 L 347.871094 295 L 257 295 Z M 257 191 " clip-rule="nonzero"/></clipPath><clipPath id="id7"><path d="M 256 78 L 347.871094 78 L 347.871094 180 L 256 180 Z M 256 78 " clip-rule="nonzero"/></clipPath><clipPath id="id8"><path d="M 26.871094 79 L 118 79 L 118 180 L 26.871094 180 Z M 26.871094 79 " clip-rule="nonzero"/></clipPath></defs><g clip-path="url(#id1)"><path fill="rgb(11.759949%, 11.759949%, 11.759949%)" d="M 156.378906 29.789062 C 160.683594 28.941406 165.070312 28.285156 169.527344 27.785156 C 149.996094 45.414062 134.074219 66.933594 122.539062 91.066406 C 116.542969 89.21875 110.65625 87.101562 104.890625 84.753906 C 95.277344 80.789062 86.007812 76.132812 77.128906 70.78125 C 98.777344 50.304688 126.039062 35.792969 156.378906 29.789062 Z M 156.378906 29.789062 " fill-opacity="1" fill-rule="nonzero"/></g><path fill="rgb(11.759949%, 11.759949%, 11.759949%)" d="M 181.027344 32.980469 L 181.027344 100.574219 C 164.875 100.148438 149.074219 98.03125 133.84375 94.261719 C 145.417969 70.664062 161.339844 49.726562 181.027344 32.980469 Z M 181.027344 32.980469 " fill-opacity="1" fill-rule="nonzero"/><path fill="rgb(11.759949%, 11.759949%, 11.759949%)" d="M 192.5625 32.480469 C 212.441406 49.300781 228.554688 70.359375 240.242188 94.144531 C 224.863281 97.996094 208.867188 100.148438 192.5625 100.574219 Z M 192.5625 32.480469 " fill-opacity="1" fill-rule="nonzero"/><g clip-path="url(#id2)"><path fill="rgb(11.759949%, 11.759949%, 11.759949%)" d="M 204.480469 27.671875 C 240.128906 31.480469 272.351562 47.03125 297.152344 70.359375 C 282.925781 79.058594 267.621094 85.945312 251.546875 90.949219 C 239.972656 66.816406 224.015625 45.300781 204.480469 27.671875 Z M 204.480469 27.671875 " fill-opacity="1" fill-rule="nonzero"/></g><g clip-path="url(#id3)"><path fill="rgb(11.759949%, 11.759949%, 11.759949%)" d="M 252.96875 280.984375 C 269.351562 286.21875 284.960938 293.457031 299.421875 302.539062 C 275.925781 325.519531 245.433594 341.339844 211.441406 346.496094 C 209.175781 346.84375 206.90625 347.152344 204.597656 347.382812 C 208.40625 343.917969 212.058594 340.339844 215.59375 336.605469 C 230.898438 320.398438 243.511719 301.578125 252.96875 280.984375 Z M 252.96875 280.984375 " fill-opacity="1" fill-rule="nonzero"/></g><path fill="rgb(11.759949%, 11.759949%, 11.759949%)" d="M 241.820312 277.75 C 232.976562 296.574219 221.363281 313.777344 207.367188 328.675781 C 202.675781 333.601562 197.753906 338.296875 192.5625 342.6875 L 192.5625 270.898438 C 209.441406 271.324219 225.9375 273.632812 241.820312 277.75 Z M 241.820312 277.75 " fill-opacity="1" fill-rule="nonzero"/><path fill="rgb(11.759949%, 11.759949%, 11.759949%)" d="M 181.027344 270.898438 L 181.027344 342.148438 C 160.453125 324.632812 143.957031 302.5 132.304688 277.636719 C 146.035156 274.09375 160.261719 271.898438 174.796875 271.128906 C 176.871094 271.015625 178.949219 270.9375 181.027344 270.898438 Z M 181.027344 270.898438 " fill-opacity="1" fill-rule="nonzero"/><g clip-path="url(#id4)"><path fill="rgb(11.759949%, 11.759949%, 11.759949%)" d="M 121.117188 280.828125 C 132.769531 306.234375 149.148438 328.867188 169.488281 347.265625 C 132.804688 343.1875 99.851562 326.710938 74.859375 302.117188 C 89.277344 293.109375 104.8125 285.988281 121.117188 280.828125 Z M 121.117188 280.828125 " fill-opacity="1" fill-rule="nonzero"/></g><g clip-path="url(#id5)"><path fill="rgb(11.759949%, 11.759949%, 11.759949%)" d="M 101.007812 191.53125 C 101.46875 219.011719 106.851562 245.648438 116.542969 270.167969 C 98.96875 275.828125 82.28125 283.679688 66.785156 293.53125 C 42.714844 266.164062 27.832031 230.558594 26.871094 191.53125 Z M 101.007812 191.53125 " fill-opacity="1" fill-rule="nonzero"/></g><path fill="rgb(11.759949%, 11.759949%, 11.759949%)" d="M 181.027344 191.53125 L 181.027344 259.351562 C 178.796875 259.390625 176.566406 259.507812 174.335938 259.621094 C 158.378906 260.46875 142.726562 262.894531 127.652344 266.898438 C 118.234375 243.492188 113.003906 217.898438 112.542969 191.53125 Z M 181.027344 191.53125 " fill-opacity="1" fill-rule="nonzero"/><path fill="rgb(11.759949%, 11.759949%, 11.759949%)" d="M 192.5625 191.53125 L 261.621094 191.53125 C 261.121094 217.972656 255.890625 243.570312 246.472656 267.050781 C 229.128906 262.394531 211.054688 259.8125 192.5625 259.351562 Z M 192.5625 191.53125 " fill-opacity="1" fill-rule="nonzero"/><g clip-path="url(#id6)"><path fill="rgb(11.759949%, 11.759949%, 11.759949%)" d="M 273.15625 191.53125 L 347.871094 191.53125 C 346.910156 230.789062 331.835938 266.589844 307.535156 294.035156 C 292 284.023438 275.195312 276.058594 257.546875 270.324219 C 267.273438 245.765625 272.695312 219.050781 273.15625 191.53125 Z M 273.15625 191.53125 " fill-opacity="1" fill-rule="nonzero"/></g><g clip-path="url(#id7)"><path fill="rgb(11.759949%, 11.759949%, 11.759949%)" d="M 347.792969 179.980469 L 273.042969 179.980469 C 272.15625 152.5 266.390625 125.902344 256.277344 101.535156 C 273.65625 96.03125 290.152344 88.371094 305.496094 78.75 C 330.257812 105.65625 345.988281 141.027344 347.792969 179.980469 Z M 347.792969 179.980469 " fill-opacity="1" fill-rule="nonzero"/></g><path fill="rgb(11.759949%, 11.759949%, 11.759949%)" d="M 261.507812 179.980469 L 192.5625 179.980469 L 192.5625 112.121094 C 210.554688 111.699219 228.167969 109.234375 245.125 104.808594 C 254.929688 128.09375 260.585938 153.578125 261.507812 179.980469 Z M 261.507812 179.980469 " fill-opacity="1" fill-rule="nonzero"/><path fill="rgb(11.759949%, 11.759949%, 11.759949%)" d="M 181.027344 112.121094 L 181.027344 179.980469 L 112.621094 179.980469 C 112.773438 175.015625 113.121094 170.128906 113.617188 165.238281 C 115.808594 144.144531 121 123.820312 128.960938 104.921875 C 145.726562 109.273438 163.183594 111.699219 181.027344 112.121094 Z M 181.027344 112.121094 " fill-opacity="1" fill-rule="nonzero"/><g clip-path="url(#id8)"><path fill="rgb(11.759949%, 11.759949%, 11.759949%)" d="M 117.773438 101.6875 C 109.621094 121.4375 104.3125 142.683594 102.121094 164.625 C 101.582031 169.703125 101.238281 174.824219 101.082031 179.980469 L 26.949219 179.980469 C 28.753906 141.261719 44.289062 106.078125 68.824219 79.210938 C 78.933594 85.523438 89.546875 90.953125 100.585938 95.414062 C 106.199219 97.800781 111.925781 99.839844 117.773438 101.6875 Z M 117.773438 101.6875 " fill-opacity="1" fill-rule="nonzero"/></g></svg>